<?xml version="1.0" encoding="UTF-8"?>
<svg id="Layer_1" data-name="Layer 1" xmlns="http://www.w3.org/2000/svg" viewBox="0 0 1856.41 1856.41">
  <defs>
    <style>
      .cls-1 {
        fill: #390058;
      }

      .cls-2 {
        fill: #ffac3b;
      }

      .cls-3 {
        fill: #ff4672;
      }
    </style>
  </defs>
  <path class="cls-1" d="M892.61,1399.9h-313.62c-67.2,0-119.56-58.27-112.4-125.09l76.92-717.32c6.16-57.43,54.63-100.98,112.4-100.98h313.62c67.2,0,119.56,58.27,112.4,125.09l-76.92,717.32c-6.16,57.43-54.63,100.98-112.4,100.98Z"/>
  <path class="cls-3" d="M1046.55,1399.9h-313.62c-67.2,0-119.56-58.27-112.4-125.09l76.92-717.32c6.16-57.43,54.63-100.98,112.4-100.98h313.62c67.2,0,119.56,58.27,112.4,125.09l-76.92,717.32c-6.16,57.43-54.63,100.98-112.4,100.98Z"/>
  <path class="cls-2" d="M1200.5,1399.9h-313.62c-67.2,0-119.56-58.27-112.4-125.09l76.92-717.32c6.16-57.43,54.63-100.98,112.4-100.98h313.62c67.2,0,119.56,58.27,112.4,125.09l-76.92,717.32c-6.16,57.43-54.63,100.98-112.4,100.98Z"/>
</svg>